<?xml version="1.0" encoding="utf-8"?>
<!-- Generator: Adobe Illustrator 22.0.1, SVG Export Plug-In . SVG Version: 6.00 Build 0)  -->
<svg version="1.1" id="Layer_1" xmlns="http://www.w3.org/2000/svg" xmlns:xlink="http://www.w3.org/1999/xlink" x="0px" y="0px"
	 viewBox="0 0 237.1 365.4" style="enable-background:new 0 0 237.1 365.4;" xml:space="preserve">
<style type="text/css">
	.st0{fill:#FFFFFF;}
</style>
<g>
	<path d="M65.8,272.7c-5.7-7.6-5.9-15.4-0.8-23.5c-7.2-5.3-12.5-11.9-13.9-20.7c-0.8-5.2-0.7-10.6-0.6-15.9c0-3.1-0.8-5.1-3.2-7.3
		c-34.1-31-46.4-69.4-34.1-113.5c12.3-44.2,42.9-71.1,88.1-79.3c62.9-11.5,122.8,35,128.3,98.7c3.3,37.6-9.6,69-37.7,94
		c-2.3,2.1-3.4,4-3.3,7.2c0.2,5.1,0.3,10.4-0.4,15.5c-1.3,8.8-6.5,15.5-13.6,21.2c4.2,7.5,4.4,15.1-0.2,22.6c-0.4,0.7,0,2.1,0.5,3
		c4.7,9,3.8,16.2-3.1,23.7c-1,1-1.8,2.8-1.7,4.1c2,15.3-2,21.4-16.5,25.1c0.2,2.4,0.7,4.9,0.6,7.3c-0.3,15-8.1,24.5-22.9,27
		c-6.5,1.1-13.3,1.4-19.9,0.7c-19.8-2.2-28.9-14.7-26.1-34.6c-3.4-1.4-7-2.4-9.9-4.3c-6.4-4.2-8.7-12-6.7-19.9
		c0.4-1.4,0.2-3.7-0.7-4.6C59.8,290.3,59,283.3,65.8,272.7z M99.4,242c0.1-2.6,0.3-4.8,0.3-6.9c0-25-0.2-50,0.1-75
		c0.1-5.9-0.8-9-7.4-10.6c-9-2.1-12.8-8-11.2-14.4c1.5-6.4,7.3-9.3,16.6-8.2c5.2,0.6,8.5,3.9,8.7,9.2c0.2,3.1,0,6.2,0,9.7
		c8.9,0,17.3,0,26.1,0c0-3.7-0.1-6.8,0-10c0.2-4.5,2.6-7.8,7-8.6c3.5-0.6,7.3-0.4,10.9,0.3c4,0.8,6.6,3.6,7.5,7.8
		c0.9,4.2-0.3,7.9-3.7,10.2c-3.2,2.2-6.9,4.1-10.7,5c-3.7,0.8-4.3,2.5-4.2,5.8c0.1,26.7,0.1,53.3,0.1,80c0,1.9,0.3,3.8,0.5,6
		c6.1,0,11.6,0.2,17.1,0c11.9-0.4,19.9-8.4,20.4-20.3c0.2-4.3,0.3-8.7,0-13c-0.4-4.8,1.4-7.9,5.2-11c21.4-17.6,33.7-40.3,35.9-67.8
		C223.5,67.7,172.3,16.7,109.9,23c-40.2,4-68.7,26-83,63.6c-14.4,38-7.3,73.6,21,103c9.6,9.9,15.6,18.7,14.1,32.9
		c-1,9.5,7,18.6,15.4,19.4C84.5,242.6,91.7,242,99.4,242z M132.1,242.4c0-30,0-59.5,0-89.2c-8.4,0-16.8,0-25.6,0c0,2.1,0,3.9,0,5.7
		c0,22.5,0,45,0,67.5c0,4.2-0.3,8.4,0.2,12.5c0.1,1.3,2.2,3.3,3.5,3.4C117.2,242.6,124.2,242.4,132.1,242.4z M119.5,266.8
		c13,0,26,0,39,0c4.7,0,7.6-2.4,7.6-6.1c0.1-3.7-2.8-6.3-7.4-6.3c-26.1-0.1-52.3-0.1-78.4,0c-4.1,0-7.2,1.7-7.6,6.2
		c-0.3,3.8,2.9,6.2,7.9,6.2C93.6,266.9,106.6,266.8,119.5,266.8z M119.2,291.3c0-0.1,0-0.2,0-0.2c13.3,0,26.7,0,40,0
		c4.1,0,6.9-1.8,6.9-6.1c0-4.2-2.8-6.2-6.9-6.2c-0.5,0-1,0-1.5,0c-25.3,0-50.6,0-76,0c-1.3,0-3.1-0.4-3.9,0.3c-2,1.7-4.5,3.8-4.9,6
		c-0.5,3.1,1.8,5.5,5.3,6c1.1,0.2,2.3,0.1,3.5,0.1C94.2,291.3,106.7,291.3,119.2,291.3z M119.8,327.1c-5.5,0-11-0.1-16.5,0
		c-4.7,0.2-6.9,2.6-7,7.3c-0.3,8.4,3.3,13.5,11.5,15.9c7.8,2.3,15.8,2.2,23.6,0c8.1-2.3,11.4-6.9,11.3-15.4c-0.1-5.5-2.3-7.7-8-7.8
		C129.8,327,124.8,327.1,119.8,327.1z M119,315.8c10.6,0,21.3,0,31.9,0c5.6,0,8.3-2.1,8.4-6.3c0.1-4-2.9-6.4-8.3-6.4
		c-21,0-41.9,0-62.9,0c-5.6,0-8.6,2.1-8.7,6c-0.1,4.2,3,6.7,8.6,6.7C98.4,315.9,108.7,315.8,119,315.8z M99.2,144.9
		c1.4-11.1,0.7-12.4-8-11c-1.3,0.2-3.1,1.8-3.3,2.9c-0.2,1.2,0.8,3.4,1.9,4C92.7,142.5,95.9,143.6,99.2,144.9z M139.4,144.7
		c2.4-0.7,4.4-1,6.1-1.7c2.8-1.2,6.7-2.3,5.7-6.2c-1.1-4.1-5.2-3.5-8.3-3.1c-1.3,0.2-2.9,2.2-3.3,3.7
		C139,139.5,139.4,141.9,139.4,144.7z"/>
	<path class="st0" d="M132.1,242.4c-7.9,0-14.9,0.2-21.9-0.2c-1.3-0.1-3.3-2.1-3.5-3.4c-0.5-4.1-0.2-8.3-0.2-12.5
		c0-22.5,0-45,0-67.5c0-1.8,0-3.6,0-5.7c8.7,0,17.1,0,25.6,0C132.1,182.8,132.1,212.4,132.1,242.4z"/>
</g>
</svg>
