<?xml version="1.0" encoding="utf-8"?>
<!-- Generator: Adobe Illustrator 22.0.1, SVG Export Plug-In . SVG Version: 6.00 Build 0)  -->
<svg version="1.1" id="Layer_1" xmlns="http://www.w3.org/2000/svg" xmlns:xlink="http://www.w3.org/1999/xlink" x="0px" y="0px"
	 viewBox="0 0 521.9 545.9" style="enable-background:new 0 0 521.9 545.9;" xml:space="preserve">
<style type="text/css">
	.st0{fill:#FFFFFF;}
</style>
<g>
	<path class="st0" d="M300.9,18c9.1,3.9,12.2,10.8,12.1,20.6c-0.3,50.3-0.1,100.6-0.2,150.9c0,2,0,3.9,0,5.8
		c40.8,9.1,62.4,46,64,75.2c1.7,31.1-20.6,70.3-64,82c0,21.6,0,43.2,0,64.8c0,30.7-0.2,61.3,0.1,92c0.1,9.8-3,16.7-12.1,20.6
		c-2.7,0-5.3,0-8,0c-3.9-3-8.2-5.6-11.6-9.1c-54.6-54.5-109.1-109-163.6-163.6c-2.4-2.5-4.9-3.4-8.3-3.4
		c-26.6,0.1-53.3-0.2-79.9,0.2c-9.8,0.1-16.7-3-20.6-12.1c0-45.3,0-90.7,0-136c3.8-9.2,10.7-12.3,20.6-12.2
		c26.5,0.4,53,0.1,79.4,0.2c3.8,0,6.4-1.1,9.1-3.8C172.6,135.5,227.3,80.9,282,26.3c3.2-3.2,7.3-5.6,10.9-8.4
		C295.6,18,298.3,18,300.9,18z M280.6,73.1c-1.2,1.1-1.9,1.6-2.4,2.2c-46.3,46.3-92.6,92.6-138.8,139c-1.4,1.4-2.3,4-2.3,6.1
		c-0.1,35.5-0.1,71-0.2,106.5c0,3.2,0.9,5.5,3.2,7.8c45.7,45.5,91.2,91.1,136.8,136.7c1,1,2.1,1.9,3.7,3.4
		C280.6,340.7,280.6,207.4,280.6,73.1z M104.5,321.7c0-32.1,0-63.8,0-95.4c-21.4,0-42.4,0-63.4,0c0,32,0,63.5,0,95.4
		C62.3,321.7,83.2,321.7,104.5,321.7z M313,319.1c19-3.8,32.2-23.4,31.9-46.6c-0.3-20.9-14.6-40.2-31.9-43.1
		C313,259.2,313,289,313,319.1z"/>
	<path class="st0" d="M505,280.8c-2.1,58.8-27.5,112.9-77.7,155.1c-8.2,6.9-17.9,6.3-23.9-1c-6-7.2-4.5-17,3.7-23.7
		c34.1-27.8,56.4-62.9,63.2-106.7c10.1-65.2-9.1-120.3-59-164.3c-1.7-1.5-3.6-2.9-5.4-4.5c-7.1-6.1-8.2-15.9-2.6-22.7
		c5.8-7,15.2-8,22.7-2c20.6,16.3,37.3,36.1,50.5,58.8C495,202.1,504.7,236.9,505,280.8z"/>
	<path class="st0" d="M441.3,273.2c-2.4,49.9-22.3,89.4-61.6,118.6c-8.9,6.6-18.7,5.5-24.2-2.4c-5.5-7.8-3.3-17.4,5.7-23.7
		c57.9-39.8,58.8-115.4,26.7-157.8c-7.6-10.1-16.6-18.6-26.9-25.9c-5.3-3.8-7.8-9.1-6.8-15.6c1-6.4,4.9-10.9,11.2-12.8
		c5.3-1.6,10.2-0.5,14.6,2.7c32.2,23.7,51.7,55.5,58.9,94.7C440.2,258.7,440.6,266.6,441.3,273.2z"/>
</g>
</svg>
